<svg id="visual" viewBox="0 0 2000 1000" width="2000" height="1000" xmlns="http://www.w3.org/2000/svg" xmlns:xlink="http://www.w3.org/1999/xlink" version="1.1"><rect x="0" y="0" width="2000" height="1000" fill="#ade8f4"></rect><path d="M0 121L333 114L667 156L1000 168L1333 106L1667 128L2000 127L2000 1001L1667 1001L1333 1001L1000 1001L667 1001L333 1001L0 1001Z" fill="#00b4d8"></path><path d="M0 186L333 243L667 247L1000 165L1333 209L1667 224L2000 179L2000 1001L1667 1001L1333 1001L1000 1001L667 1001L333 1001L0 1001Z" fill="#00adcd"></path><path d="M0 243L333 299L667 307L1000 238L1333 289L1667 311L2000 258L2000 1001L1667 1001L1333 1001L1000 1001L667 1001L333 1001L0 1001Z" fill="#00a6c3"></path><path d="M0 366L333 401L667 380L1000 406L1333 331L1667 317L2000 389L2000 1001L1667 1001L1333 1001L1000 1001L667 1001L333 1001L0 1001Z" fill="#009eb9"></path><path d="M0 414L333 410L667 472L1000 455L1333 424L1667 457L2000 475L2000 1001L1667 1001L1333 1001L1000 1001L667 1001L333 1001L0 1001Z" fill="#0097af"></path><path d="M0 557L333 492L667 526L1000 539L1333 509L1667 535L2000 539L2000 1001L1667 1001L1333 1001L1000 1001L667 1001L333 1001L0 1001Z" fill="#0090a5"></path><path d="M0 570L333 609L667 562L1000 595L1333 589L1667 581L2000 623L2000 1001L1667 1001L1333 1001L1000 1001L667 1001L333 1001L0 1001Z" fill="#00899b"></path><path d="M0 676L333 673L667 683L1000 714L1333 644L1667 714L2000 709L2000 1001L1667 1001L1333 1001L1000 1001L667 1001L333 1001L0 1001Z" fill="#008292"></path><path d="M0 765L333 787L667 783L1000 722L1333 732L1667 777L2000 736L2000 1001L1667 1001L1333 1001L1000 1001L667 1001L333 1001L0 1001Z" fill="#007b89"></path><path d="M0 853L333 816L667 803L1000 830L1333 863L1667 857L2000 865L2000 1001L1667 1001L1333 1001L1000 1001L667 1001L333 1001L0 1001Z" fill="#007480"></path><path d="M0 908L333 947L667 886L1000 894L1333 920L1667 944L2000 884L2000 1001L1667 1001L1333 1001L1000 1001L667 1001L333 1001L0 1001Z" fill="#006d77"></path></svg>